<svg width="18" height="18" viewBox="0 0 18 18" fill="none" xmlns="http://www.w3.org/2000/svg">
<path d="M3.75 9.88496V11.9925C3.75 12.54 4.05 13.05 4.53 13.3125L8.28 15.36C8.73 15.6075 9.27 15.6075 9.72 15.36L13.47 13.3125C13.95 13.05 14.25 12.54 14.25 11.9925V9.88496L9.72 12.36C9.27 12.6075 8.73 12.6075 8.28 12.36L3.75 9.88496ZM8.28 2.63996L1.9575 6.08996C1.44 6.37496 1.44 7.12496 1.9575 7.40996L8.28 10.86C8.73 11.1075 9.27 11.1075 9.72 10.86L15.75 7.56746V12C15.75 12.4125 16.0875 12.75 16.5 12.75C16.9125 12.75 17.25 12.4125 17.25 12V7.19246C17.25 6.91496 17.1 6.66746 16.86 6.53246L9.72 2.63996C9.27 2.39996 8.73 2.39996 8.28 2.63996Z" fill="#F94A4A"/>
</svg>
