<svg width="30" height="30" viewBox="0 0 30 30" fill="none" xmlns="http://www.w3.org/2000/svg">
<path d="M15 3.58936C8.26922 3.58936 2.8125 8.89017 2.8125 15.4286C2.8125 21.9671 8.26922 27.2679 15 27.2679C21.7308 27.2679 27.1875 21.9671 27.1875 15.4286C27.1875 8.89017 21.7308 3.58936 15 3.58936ZM23.1975 9.3601C24.4814 10.993 25.2595 13.0189 25.3069 15.2169C23.2069 14.8312 20.7783 14.6427 18.202 15.1477C17.8945 14.4542 17.5716 13.7629 17.2242 13.0772C20.2556 11.8454 22.1869 10.3191 23.1975 9.3601ZM21.9216 8.00905C21.0445 8.83234 19.2408 10.2658 16.3402 11.4238C15.2297 9.43569 13.9622 7.50679 12.5625 5.69629C13.3444 5.51096 14.16 5.41078 15 5.41078C17.6611 5.41078 20.0902 6.39527 21.9216 8.00905ZM10.6987 6.32742C12.1312 8.1279 13.4264 10.0559 14.5566 12.0481C12.0286 12.8235 8.85187 13.3408 4.94625 13.2083C5.66203 10.1465 7.82531 7.61426 10.6987 6.32742ZM4.6875 15.4286C4.6875 15.292 4.69266 15.1559 4.69828 15.0206C5.21953 15.0416 5.73328 15.0552 6.23156 15.0552C9.93984 15.0552 12.9895 14.4997 15.4584 13.7129C15.7823 14.3453 16.0852 14.9828 16.3739 15.6222C13.4362 16.578 10.3683 18.5419 7.42031 22.2126C5.72531 20.4266 4.6875 18.0438 4.6875 15.4286ZM8.81391 23.4384C11.5603 19.9808 14.3756 18.1581 17.0897 17.3024C18.0727 19.7655 18.7739 22.2344 19.1447 24.5991C17.8753 25.1423 16.4738 25.4465 15 25.4465C12.6806 25.4465 10.5384 24.6983 8.81391 23.4384ZM20.8894 23.6451C20.4891 21.4325 19.8202 19.1444 18.923 16.8616C21.1369 16.4869 23.2537 16.675 25.1761 17.047C24.7186 19.7705 23.1272 22.1269 20.8894 23.6451Z" fill="#F94A4A"/>
</svg>
