<svg width="20" height="31" viewBox="0 0 20 31" fill="none" xmlns="http://www.w3.org/2000/svg">
<path d="M2.45235 25.1317C1.79414 25.1317 1.22087 24.909 0.732521 24.4637C0.244174 23.9971 0 23.4139 0 22.714C0 21.9293 0.276022 21.293 0.828067 20.8052C1.40134 20.2963 2.0914 20.0418 2.89823 20.0418C3.6626 20.0418 4.26773 20.2856 4.71361 20.7734C5.15949 21.24 5.38243 21.802 5.38243 22.4595C5.38243 23.2866 5.10641 23.9441 4.55437 24.4319C4.02355 24.8984 3.32288 25.1317 2.45235 25.1317Z" fill="#F94A4A"/>
<path d="M11.6556 30.4762H8.43892L16.7833 0H20L11.6556 30.4762Z" fill="#141414"/>
</svg>
