<svg width="30" height="30" viewBox="0 0 30 30" fill="none" xmlns="http://www.w3.org/2000/svg">
<path d="M15 3.77148C8.373 3.77148 3 8.99097 3 15.4286C3 20.891 6.872 25.4615 12.092 26.7263C12.036 26.569 12 26.3863 12 26.16V24.1676C11.513 24.1676 10.697 24.1676 10.492 24.1676C9.671 24.1676 8.941 23.8247 8.587 23.1874C8.194 22.4793 8.126 21.3961 7.152 20.7336C6.863 20.5131 7.083 20.2615 7.416 20.2955C8.031 20.4645 8.541 20.8745 9.021 21.4826C9.499 22.0917 9.724 22.2296 10.617 22.2296C11.05 22.2296 11.698 22.2053 12.308 22.1121C12.636 21.3029 13.203 20.5578 13.896 20.2061C9.9 19.8069 7.993 17.8757 7.993 15.2538C7.993 14.125 8.488 13.0331 9.329 12.1131C9.053 11.2 8.706 9.33777 9.435 8.62863C11.233 8.62863 12.32 9.76131 12.581 10.0673C13.477 9.76908 14.461 9.60006 15.495 9.60006C16.531 9.60006 17.519 9.76908 18.417 10.0693C18.675 9.7652 19.763 8.62863 21.565 8.62863C22.297 9.33874 21.946 11.2087 21.667 12.1199C22.503 13.0379 22.995 14.1269 22.995 15.2538C22.995 17.8737 21.091 19.8039 17.101 20.2051C18.199 20.7618 19 22.3258 19 23.5041V26.16C19 26.261 18.977 26.3339 18.965 26.4203C23.641 24.8282 27 20.515 27 15.4286C27 8.99097 21.627 3.77148 15 3.77148Z" fill="#F94A4A"/>
</svg>
