<svg width="30" height="30" viewBox="0 0 30 30" fill="none" xmlns="http://www.w3.org/2000/svg">
<path d="M9.99805 3.77148C6.13905 3.77148 3 6.82367 3 10.5734V20.2877C3 24.0364 6.14195 27.0858 10.002 27.0858H20.002C23.861 27.0858 27 24.0336 27 20.2839V10.5696C27 6.82084 23.858 3.77148 19.998 3.77148H9.99805ZM22 7.6572C22.552 7.6572 23 8.0924 23 8.62863C23 9.16486 22.552 9.60006 22 9.60006C21.448 9.60006 21 9.16486 21 8.62863C21 8.0924 21.448 7.6572 22 7.6572ZM15 9.60006C18.309 9.60006 21 12.2142 21 15.4286C21 18.6431 18.309 21.2572 15 21.2572C11.691 21.2572 9 18.6431 9 15.4286C9 12.2142 11.691 9.60006 15 9.60006ZM15 11.5429C13.9391 11.5429 12.9217 11.9523 12.1716 12.681C11.4214 13.4097 11 14.3981 11 15.4286C11 16.4592 11.4214 17.4475 12.1716 18.1762C12.9217 18.905 13.9391 19.3143 15 19.3143C16.0609 19.3143 17.0783 18.905 17.8284 18.1762C18.5786 17.4475 19 16.4592 19 15.4286C19 14.3981 18.5786 13.4097 17.8284 12.681C17.0783 11.9523 16.0609 11.5429 15 11.5429Z" fill="#F94A4A"/>
</svg>
