<svg width="30" height="30" viewBox="0 0 30 30" fill="none" xmlns="http://www.w3.org/2000/svg">
<path d="M24.6 3.1886H5.39999C3.74399 3.1886 2.39999 4.4942 2.39999 6.10288V24.7543C2.39999 26.363 3.74399 27.6686 5.39999 27.6686H24.6C26.256 27.6686 27.6 26.363 27.6 24.7543V6.10288C27.6 4.4942 26.256 3.1886 24.6 3.1886ZM10.2 12.5143V23.5886H6.59999V12.5143H10.2ZM6.59999 9.29111C6.59999 8.47511 7.31999 7.85146 8.39999 7.85146C9.47999 7.85146 10.158 8.47511 10.2 9.29111C10.2 10.1071 9.52799 10.7657 8.39999 10.7657C7.31999 10.7657 6.59999 10.1071 6.59999 9.29111ZM23.4 23.5886H19.8C19.8 23.5886 19.8 18.1913 19.8 17.76C19.8 16.5943 19.2 15.4286 17.7 15.4053H17.652C16.2 15.4053 15.6 16.606 15.6 17.76C15.6 18.2904 15.6 23.5886 15.6 23.5886H12V12.5143H15.6V14.0064C15.6 14.0064 16.758 12.5143 19.086 12.5143C21.468 12.5143 23.4 14.1055 23.4 17.3287V23.5886Z" fill="#F94A4A"/>
</svg>
