<svg width="360" height="349" viewBox="0 0 360 349" fill="none" xmlns="http://www.w3.org/2000/svg">
<g clip-path="url(#clip0_2_134)">
<path d="M338.691 96.3252C335.321 90.2604 331.582 84.4071 327.494 78.798C324.63 74.8628 321.604 71.059 318.416 67.3864H318.408C312.638 60.738 306.364 54.543 299.64 48.8565C298.264 47.6906 296.869 46.5487 295.455 45.4306C282.697 35.3063 268.549 27.06 253.444 20.9436L253.578 42.9622L255.023 293.962H129.74L122.694 43.4358L123.219 21.7688C61.7963 47.5372 18.6686 108.123 18.6686 178.761C18.6571 193.341 20.5219 207.862 24.2172 221.968C25.778 227.931 27.6676 233.804 29.8774 239.559C30.6752 241.648 31.5169 243.719 32.4024 245.77C32.8292 246.769 33.264 247.76 33.7148 248.747C34.2931 250.036 34.8955 251.321 35.5138 252.59C35.9924 253.589 36.4844 254.581 36.9897 255.566C37.6399 256.86 38.3113 258.142 39.0041 259.414C39.5386 260.413 40.089 261.404 40.6475 262.39C49.6571 278.287 61.162 292.64 74.7248 304.905C78.5901 308.403 82.6122 311.719 86.7913 314.853C116.361 337.016 152.347 349 189.334 349C226.321 349 262.308 337.016 291.877 314.853C294.151 313.15 296.378 311.39 298.559 309.573C300.007 308.371 301.431 307.147 302.831 305.9C303.202 305.57 303.573 305.24 303.94 304.905C316.444 293.598 327.205 280.511 335.875 266.067C339.059 260.771 341.946 255.304 344.523 249.69C345.205 248.209 345.866 246.716 346.505 245.209C349.449 238.301 351.925 231.204 353.917 223.966C354.224 222.848 354.521 221.726 354.806 220.6V220.596C354.854 220.401 354.906 220.202 354.954 220.007C355.249 218.821 355.532 217.627 355.804 216.434V216.43C356.681 212.582 357.422 208.688 358.025 204.747C358.101 204.242 358.177 203.737 358.249 203.232C358.277 203.049 358.305 202.865 358.325 202.682V202.678C358.755 199.635 359.105 196.568 359.374 193.479C359.789 188.629 359.997 183.723 360 178.761C360.045 149.921 352.711 121.547 338.691 96.3252Z" fill="#F5F5F5"/>
<path d="M321.931 281.525C332.032 267.91 335.917 248.732 328.059 233.717C320.69 250.606 307.569 264.351 291.019 272.52C284.624 275.647 277.186 278.461 274.226 284.922C272.384 288.942 272.735 293.689 274.215 297.855C275.696 302.021 278.214 305.728 280.706 309.384L280.837 310.479C296.523 303.992 311.829 295.14 321.931 281.525Z" fill="#CCCCCC"/>
<path d="M327.724 233.838C327.272 247.85 322.404 261.364 313.813 272.461C312.007 274.882 309.828 277.004 307.359 278.749C304.898 280.371 302.047 281.307 299.102 281.458C296.358 281.654 293.529 281.538 290.881 282.396C289.532 282.855 288.295 283.594 287.253 284.563C286.21 285.532 285.384 286.71 284.83 288.02C283.364 291.248 283.148 294.809 283.058 298.299C282.959 302.173 282.917 306.199 281.085 309.722C280.863 310.148 281.539 310.467 281.761 310.041C284.949 303.913 282.879 296.747 284.779 290.305C285.665 287.299 287.465 284.541 290.473 283.337C293.104 282.283 296.022 282.401 298.801 282.226C301.677 282.121 304.483 281.314 306.974 279.878C309.525 278.264 311.781 276.229 313.647 273.86C317.934 268.593 321.363 262.687 323.81 256.358C326.643 249.149 328.219 241.511 328.47 233.773C328.485 233.294 327.74 233.362 327.724 233.838Z" fill="white"/>
<path d="M316.79 269.05C318.852 270.235 321.27 270.65 323.61 270.222C325.951 269.793 328.063 268.549 329.568 266.71C329.872 266.337 329.305 265.849 329.001 266.223C327.602 267.937 325.635 269.097 323.455 269.491C321.274 269.886 319.024 269.49 317.11 268.375C316.694 268.133 316.377 268.81 316.79 269.05Z" fill="white"/>
<path d="M300.506 281.541C299.2 276.867 299.709 271.873 301.931 267.556C302.151 267.129 301.475 266.81 301.255 267.237C298.951 271.734 298.432 276.931 299.801 281.793C299.932 282.256 300.636 282.002 300.506 281.541H300.506Z" fill="white"/>
<path d="M325.651 249.184C324.758 248.891 323.951 248.382 323.304 247.701C322.656 247.021 322.188 246.19 321.942 245.285C321.817 244.82 321.113 245.075 321.237 245.536C321.514 246.535 322.032 247.452 322.746 248.205C323.459 248.959 324.347 249.526 325.331 249.859C325.422 249.898 325.523 249.901 325.616 249.868C325.708 249.835 325.785 249.768 325.83 249.681C325.872 249.591 325.876 249.489 325.843 249.396C325.81 249.303 325.741 249.227 325.651 249.184Z" fill="white"/>
<path d="M271.829 221.768C271.898 222.06 271.968 222.353 272.034 222.65C272.95 226.585 273.545 230.589 273.811 234.621C273.837 234.932 273.858 235.248 273.875 235.559C274.413 245.28 273.138 255.015 270.114 264.271C268.907 267.953 267.421 271.538 265.669 274.995C263.249 279.77 260.244 284.754 259.566 289.896C259.489 290.431 259.446 290.971 259.436 291.512L279.487 310.554C279.554 310.574 279.617 310.6 279.685 310.62L280.45 311.417C280.553 311.245 280.656 311.065 280.759 310.893C280.819 310.793 280.875 310.689 280.935 310.59C280.974 310.522 281.012 310.454 281.051 310.395C281.064 310.373 281.076 310.35 281.085 310.332C281.124 310.273 281.153 310.214 281.188 310.16C281.766 309.152 282.338 308.138 282.905 307.119C282.909 307.114 282.909 307.114 282.909 307.105C287.203 299.326 290.883 291.121 293.198 282.619C293.268 282.363 293.342 282.103 293.402 281.839C294.425 278.001 295.131 274.086 295.513 270.133C295.716 267.968 295.809 265.794 295.791 263.62C295.734 258.002 294.792 252.427 292.999 247.101C289.422 236.484 282.482 227.127 272.588 222.141C272.335 222.014 272.086 221.891 271.829 221.768Z" fill="#CCCCCC"/>
<path d="M271.631 222.064C279.728 233.525 283.998 247.238 283.836 261.257C283.855 264.276 283.397 267.278 282.478 270.155C281.493 272.928 279.781 275.387 277.52 277.276C275.448 279.081 273.119 280.687 271.523 282.962C270.723 284.139 270.181 285.471 269.934 286.871C269.686 288.272 269.738 289.708 270.086 291.087C270.864 294.545 272.841 297.518 274.876 300.358C277.135 303.511 279.531 306.751 280.194 310.664C280.275 311.138 281.007 310.986 280.927 310.512C279.774 303.705 273.796 299.226 271.424 292.942C270.318 290.01 270.09 286.727 271.765 283.958C273.23 281.537 275.63 279.879 277.744 278.07C279.977 276.259 281.73 273.93 282.852 271.287C283.915 268.466 284.488 265.486 284.548 262.474C284.792 255.695 283.965 248.919 282.099 242.396C280.01 234.939 276.658 227.894 272.188 221.565C271.911 221.173 271.356 221.675 271.631 222.064Z" fill="white"/>
<path d="M284.155 256.746C286.517 256.454 288.697 255.334 290.307 253.586C291.918 251.838 292.852 249.576 292.945 247.204C292.962 246.724 292.215 246.675 292.198 247.156C292.116 249.365 291.245 251.471 289.742 253.096C288.239 254.721 286.204 255.756 284.003 256.015C283.525 256.072 283.679 256.803 284.155 256.746H284.155Z" fill="white"/>
<path d="M278.692 276.5C274.828 273.551 272.22 269.258 271.389 264.477C271.307 264.004 270.574 264.156 270.656 264.629C271.531 269.602 274.254 274.064 278.281 277.124C278.665 277.415 279.074 276.789 278.692 276.5V276.5Z" fill="white"/>
<path d="M279.239 235.563C278.349 235.866 277.397 235.943 276.47 235.789C275.542 235.634 274.667 235.252 273.924 234.677C273.544 234.381 273.136 235.007 273.513 235.301C274.337 235.933 275.304 236.353 276.328 236.526C277.353 236.699 278.404 236.619 279.391 236.294C279.487 236.271 279.57 236.212 279.624 236.13C279.678 236.048 279.698 235.949 279.682 235.852C279.661 235.756 279.603 235.671 279.52 235.617C279.437 235.562 279.336 235.543 279.239 235.563Z" fill="white"/>
<path d="M7.96733 205.271C-0.991585 190.882 -3.30125 171.453 5.75385 157.125C11.7229 174.555 23.6805 189.318 39.511 198.802C45.6294 202.437 52.8141 205.844 55.2377 212.524C56.7458 216.68 56.0095 221.383 54.1945 225.416C52.3793 229.448 49.5675 232.938 46.7864 236.38L46.5664 237.461C31.4611 229.724 16.9262 219.66 7.96733 205.271Z" fill="#CCCCCC"/>
<path d="M6.0781 157.272C5.38759 171.275 9.13788 185.139 16.7963 196.895C18.3999 199.455 20.3981 201.747 22.7172 203.686C25.0375 205.502 27.803 206.666 30.7265 207.055C33.445 207.473 36.2743 207.586 38.8437 208.656C40.1507 209.223 41.3229 210.06 42.2832 211.11C43.2435 212.161 43.9703 213.402 44.416 214.753C45.6142 218.089 45.5393 221.655 45.3444 225.141C45.1281 229.011 44.842 233.027 46.3811 236.686C46.5676 237.129 45.8671 237.392 45.6809 236.949C43.003 230.583 45.6498 223.609 44.2813 217.034C43.6427 213.966 42.0734 211.072 39.1731 209.627C36.6369 208.364 33.7194 208.245 30.9631 207.845C28.1056 207.507 25.3746 206.476 23.0087 204.842C20.5981 203.027 18.5147 200.815 16.8479 198.303C13.0048 192.706 10.0678 186.542 8.14449 180.035C5.90813 172.621 4.95969 164.88 5.34019 157.147C5.36394 156.668 6.10171 156.797 6.07811 157.272L6.0781 157.272Z" fill="white"/>
<path d="M14.107 193.254C11.9553 194.268 9.51225 194.486 7.21426 193.869C4.91628 193.252 2.91296 191.841 1.56208 189.886C1.2901 189.49 1.89479 189.05 2.16713 189.447C3.42171 191.269 5.28794 192.584 7.42899 193.154C9.57005 193.724 11.8449 193.512 13.8429 192.556C14.2774 192.349 14.539 193.048 14.107 193.254Z" fill="white"/>
<path d="M29.3201 207.024C31.002 202.471 30.9016 197.453 29.039 192.97C28.8541 192.526 29.5546 192.263 29.7392 192.707C31.6688 197.375 31.7627 202.598 30.002 207.332C29.8339 207.783 29.1529 207.473 29.3201 207.024Z" fill="white"/>
<path d="M6.8938 172.736C7.80831 172.516 8.65391 172.074 9.35465 171.448C10.0554 170.822 10.5893 170.033 10.9085 169.15C11.0709 168.697 11.7517 169.008 11.5904 169.458C11.2332 170.431 10.6425 171.303 9.86977 171.996C9.09709 172.689 8.166 173.183 7.15785 173.434C7.06481 173.466 6.96318 173.461 6.87362 173.421C6.78407 173.38 6.71329 173.307 6.67569 173.217C6.64119 173.124 6.64475 173.022 6.68559 172.931C6.72643 172.841 6.80125 172.771 6.8938 172.736Z" fill="white"/>
<path d="M62.7722 149.773C62.6789 150.059 62.5856 150.345 62.4961 150.636C61.2619 154.484 60.3431 158.426 59.7489 162.423C59.6981 162.731 59.6512 163.044 59.6093 163.354C58.2807 172.998 58.7586 182.805 61.0188 192.275C61.9217 196.043 63.1106 199.736 64.5753 203.324C66.5984 208.279 69.1871 213.49 69.4436 218.67C69.4765 219.21 69.4757 219.752 69.4414 220.292L47.906 237.645C47.8373 237.66 47.7722 237.68 47.7032 237.695L46.8751 238.427C46.7866 238.247 46.6987 238.059 46.6102 237.879C46.5584 237.775 46.5114 237.667 46.4596 237.563C46.4267 237.493 46.3939 237.422 46.36 237.36C46.349 237.336 46.3382 237.313 46.331 237.294C46.2972 237.232 46.2724 237.171 46.2425 237.114C45.7482 236.063 45.2604 235.006 44.7792 233.944C44.7753 233.939 44.7753 233.939 44.7761 233.93C41.1302 225.829 38.1303 217.352 36.5156 208.691C36.4671 208.43 36.4143 208.165 36.3757 207.897C35.6696 203.989 35.2848 200.029 35.2253 196.059C35.1998 193.884 35.2846 191.71 35.4794 189.545C35.9936 183.95 37.3869 178.47 39.6081 173.307C44.0376 163.015 51.7177 154.251 61.9847 150.084C62.2473 149.978 62.5055 149.875 62.7722 149.773Z" fill="#CCCCCC"/>
<path d="M62.9446 150.085C53.9414 160.851 48.5677 174.173 47.587 188.159C47.3223 191.166 47.5344 194.195 48.2155 197.137C48.9719 199.98 50.4778 202.57 52.5769 204.637C54.4953 206.603 56.6858 208.393 58.0916 210.79C58.793 212.028 59.2241 213.4 59.3567 214.815C59.4893 216.231 59.3205 217.658 58.8612 219.004C57.8043 222.388 55.5917 225.19 53.3324 227.856C50.8239 230.816 48.1714 233.851 47.1918 237.697C47.0731 238.163 46.3552 237.952 46.4737 237.487C48.1781 230.796 54.5011 226.816 57.3767 220.745C58.7185 217.912 59.2126 214.658 57.7687 211.763C56.506 209.232 54.2487 207.384 52.289 205.41C50.2117 203.424 48.6535 200.96 47.7506 198.235C46.9215 195.338 46.5927 192.321 46.7783 189.314C47.0879 182.537 48.4637 175.851 50.8554 169.501C53.5447 162.238 57.4596 155.488 62.4309 149.542C62.7388 149.174 63.2504 149.719 62.9446 150.085V150.085Z" fill="white"/>
<path d="M47.637 183.637C45.3069 183.154 43.2248 181.861 41.7623 179.988C40.2999 178.115 39.5524 175.785 39.6533 173.414C39.6583 173.317 39.7008 173.226 39.7717 173.16C39.8426 173.094 39.9365 173.058 40.0335 173.059C40.1306 173.061 40.2232 173.1 40.2919 173.168C40.3606 173.237 40.4 173.329 40.4018 173.426C40.3037 175.634 41.0002 177.805 42.3656 179.546C43.731 181.287 45.6754 182.484 47.8478 182.92C48.3197 183.016 48.1062 183.732 47.637 183.637Z" fill="white"/>
<path d="M51.4725 203.768C55.5637 201.142 58.5125 197.075 59.731 192.377C59.8513 191.912 60.5693 192.123 60.4491 192.587C59.172 197.474 56.0946 201.7 51.8313 204.423C51.4247 204.682 51.0682 204.026 51.4725 203.768V203.768Z" fill="white"/>
<path d="M54.2623 162.922C55.1248 163.296 56.067 163.45 57.0042 163.372C57.9414 163.293 58.8444 162.983 59.6319 162.47C60.035 162.206 60.3911 162.863 59.9906 163.125C59.1179 163.688 58.1203 164.029 57.085 164.118C56.0497 164.208 55.0082 164.043 54.0515 163.638C53.9581 163.607 53.8799 163.542 53.8328 163.456C53.7857 163.37 53.7732 163.27 53.7978 163.175C53.8262 163.08 53.8909 163 53.9779 162.953C54.0648 162.906 54.167 162.894 54.2623 162.922Z" fill="white"/>
<path d="M174.273 58.3946C187.368 58.3946 197.984 47.8055 197.984 34.7431C197.984 21.6807 187.368 11.0915 174.273 11.0915C161.178 11.0915 150.562 21.6807 150.562 34.7431C150.562 47.8055 161.178 58.3946 174.273 58.3946Z" fill="#FFEF5C"/>
<path d="M246.871 33.5088C244.734 31.2575 242.479 29.1217 240.113 27.1107C235.494 23.2034 230.381 19.881 224.68 17.788C222.534 16.9975 220.317 16.4152 218.059 16.0492C217.788 16.0055 217.52 15.9617 217.249 15.9259C217.229 15.9239 217.209 15.9239 217.189 15.9259C217.147 15.9141 217.105 15.9061 217.062 15.902C216.507 15.8304 215.953 15.7747 215.394 15.7349C212.387 15.5355 209.366 15.8067 206.443 16.5387C204.747 16.9655 203.092 17.5407 201.497 18.2575C199.899 19.0378 198.35 19.9135 196.858 20.8797C196.056 21.3652 195.231 21.8101 194.385 22.2126C191.914 23.3805 189.298 24.2154 186.606 24.6955C184.788 25.0207 182.948 25.2017 181.101 25.2366C179.498 25.2684 177.986 25.3241 176.466 25.9011C174.844 26.509 173.387 27.487 172.212 28.7568C171.037 30.0267 170.175 31.5532 169.697 33.2144C169.659 33.3619 169.67 33.5176 169.727 33.6586C169.785 33.7997 169.886 33.9187 170.016 33.9982C170.427 34.2927 170.826 34.6269 171.261 34.8895C171.644 35.0642 172.054 35.1757 172.473 35.2198C173.159 35.363 173.847 35.5023 174.536 35.6376C177.069 36.1389 179.612 36.5832 182.166 36.9705C187.304 37.7464 192.471 38.2928 197.667 38.6098C197.699 38.6145 197.731 38.6171 197.763 38.6178C203.633 38.9712 209.518 39.0283 215.394 38.7889C216.284 38.7531 217.169 38.7093 218.059 38.6576C221.764 38.4507 225.461 38.1244 229.148 37.6787C232.558 37.2649 235.956 36.7517 239.34 36.1389C241.757 35.7012 244.165 35.2131 246.564 34.6747C246.68 34.6403 246.786 34.5765 246.87 34.4895C246.955 34.4025 247.015 34.2952 247.046 34.178C247.077 34.0608 247.077 33.9377 247.047 33.8205C247.016 33.7032 246.955 33.5959 246.871 33.5088Z" fill="#F0F0F0"/>
<path d="M197.588 65.046C194.155 61.3831 190.373 58.0622 186.295 55.1304C184.943 54.1835 183.551 53.2922 182.119 52.4765C180.363 51.4655 178.54 50.5762 176.662 49.8146C176.243 49.6435 175.82 49.4803 175.397 49.3252C172.995 48.4377 170.503 47.8133 167.966 47.463C167.946 47.459 167.926 47.463 167.906 47.459C167.866 47.4511 167.822 47.4431 167.782 47.4352C166.552 47.276 165.313 47.2003 164.073 47.2083C163.183 47.2083 162.29 47.2561 161.404 47.3436C159.973 47.4842 158.555 47.7289 157.16 48.0758C156.47 48.2469 155.784 48.4458 155.11 48.6726C154.126 48.9954 153.161 49.3699 152.218 49.7947C152.202 49.8026 152.19 49.8066 152.174 49.8146C150.59 50.5874 149.056 51.4564 147.579 52.4168C147.547 52.4367 147.511 52.4566 147.479 52.4765C145.801 53.4775 144.027 54.3067 142.182 54.9514C140.598 55.5038 138.974 55.9322 137.323 56.2326C135.506 56.5587 133.665 56.7384 131.818 56.7698C130.215 56.8016 128.703 56.8573 127.187 57.4382C125.565 58.046 124.107 59.0239 122.931 60.2937C121.755 61.5635 120.893 63.0901 120.414 64.7515C120.377 64.899 120.388 65.0545 120.446 65.1954C120.503 65.3362 120.604 65.4553 120.733 65.5354C121.144 65.8298 121.547 66.1601 121.978 66.4227C122.361 66.5987 122.771 66.7102 123.19 66.7529C123.877 66.8962 124.563 67.0394 125.253 67.1747C127.786 67.676 130.331 68.119 132.887 68.5037C136.394 69.0329 139.915 69.456 143.45 69.7729C145.125 69.9281 146.802 70.0554 148.48 70.1549C152.784 70.4135 157.092 70.5143 161.404 70.4573C162.294 70.4454 163.183 70.4255 164.073 70.3976C169.354 70.2425 174.619 69.8472 179.869 69.2119C185.72 68.5058 191.531 67.5031 197.281 66.2078C197.397 66.1738 197.502 66.1104 197.587 66.0238C197.671 65.9372 197.732 65.8302 197.763 65.7134C197.794 65.5965 197.794 65.4736 197.763 65.3567C197.732 65.2398 197.672 65.1327 197.588 65.046Z" fill="#F0F0F0"/>
<path d="M138.486 1.57026L159.375 289.51L117.598 293.209V5.23367C122.576 1.35481 129.722 0.747958 138.486 1.57026Z" fill="#CCCCCC"/>
<path d="M241.597 1.57026L220.708 289.51L262.485 293.209V5.23367C257.507 1.35481 250.361 0.747958 241.597 1.57026Z" fill="#CCCCCC"/>
<path d="M263.468 5.35936C262.172 2.18883 259.416 0 256.228 0H123.409C118.978 0 115.376 4.24145 115.376 9.4599V295.648C115.337 298.296 116.33 300.855 118.144 302.788C119.094 303.783 120.296 304.502 121.622 304.869C122.204 305.029 122.806 305.11 123.409 305.108H256.228C256.832 305.11 257.433 305.029 258.015 304.869C261.589 303.911 264.262 300.143 264.262 295.648V9.45991C264.266 8.05472 263.996 6.66215 263.468 5.35936ZM261.597 295.648C261.597 299.134 259.188 301.971 256.228 301.971H123.409C120.956 301.971 118.878 300.021 118.244 297.367C118.108 296.804 118.04 296.227 118.04 295.648V9.45991C118.04 5.97469 120.45 3.14236 123.409 3.14236H256.228C256.773 3.14193 257.314 3.23897 257.824 3.42888C260.006 4.22739 261.597 6.62759 261.597 9.45991V295.648Z" fill="#CCCCCC"/>
<path d="M262.93 86.9914H116.709V89.6513H262.93V86.9914Z" fill="#CCCCCC"/>
<path d="M262.93 32.082H116.709V34.742H262.93V32.082Z" fill="#CCCCCC"/>
<path d="M262.93 131.324H116.709V133.984H262.93V131.324Z" fill="#CCCCCC"/>
<path d="M164.159 1.1937H161.492V169.007H164.159V1.1937Z" fill="#CCCCCC"/>
<path d="M218.146 1.1937H215.48V169.007H218.146V1.1937Z" fill="#CCCCCC"/>
<path d="M279.595 288.484H104.486C101.305 288.488 98.2553 289.75 96.0059 291.994C93.7565 294.238 92.4912 297.28 92.4874 300.453C92.4858 301.979 92.7798 303.491 93.353 304.905C94.2438 307.124 95.7803 309.027 97.7645 310.367C99.7487 311.707 102.09 312.424 104.486 312.426H279.595C281.69 312.425 283.748 311.877 285.565 310.837C287.381 309.797 288.894 308.301 289.951 306.497C290.252 305.987 290.513 305.455 290.732 304.905C291.306 303.491 291.6 301.979 291.598 300.453C291.593 297.279 290.327 294.237 288.077 291.994C285.827 289.75 282.777 288.488 279.595 288.484Z" fill="#A3A3A3"/>
<path d="M262.93 162.801H117.598V171.667H262.93V162.801Z" fill="#CCCCCC"/>
<path d="M188.93 160.141H191.597C192.894 160.141 194.137 160.655 195.054 161.569C195.971 162.484 196.486 163.724 196.486 165.017H184.042C184.042 164.377 184.168 163.743 184.414 163.151C184.659 162.559 185.019 162.022 185.473 161.569C185.927 161.116 186.466 160.757 187.059 160.512C187.653 160.267 188.288 160.141 188.93 160.141Z" fill="#CCCCCC"/>
<path d="M192.827 187.807C208.039 187.807 220.37 175.506 220.37 160.333C220.37 145.16 208.039 132.859 192.827 132.859C177.616 132.859 165.285 145.16 165.285 160.333C165.285 175.506 177.616 187.807 192.827 187.807Z" fill="#FBD8BE"/>
<path d="M162.103 133.903C162.311 130.748 164.403 127.52 171.048 125.833C171.048 125.833 182.453 111.285 197.951 118.914C197.951 118.914 205.464 117.625 211.036 125.4C211.036 125.4 216.559 122.151 218.89 127.911C218.89 127.911 225.368 139.66 222.983 151.643C220.598 163.627 219.377 165.123 219.377 165.123C219.377 165.123 222.417 140.334 204.907 142.053C187.397 143.772 173.3 137.63 169.335 151.078C166.042 162.245 166.457 168.045 166.457 168.045C166.457 168.045 155.446 156.905 159.19 148.133C161.105 143.646 161.782 138.769 162.103 133.903Z" fill="#49433C"/>
<path d="M117.928 310.476H270.274C269.256 298.884 268.59 254.574 268.59 251.657C268.59 238.794 258.039 224.757 258.039 224.757L254.262 222.675L222.721 212.859L214.559 202.283C213.704 201.172 212.603 200.274 211.341 199.66C210.08 199.046 208.693 198.731 207.289 198.742L181.505 198.935C179.236 198.953 177.055 199.815 175.39 201.352L159.423 216.127L136.005 227.282L135.966 227.242L135.721 227.424L132.246 229.92L130.01 231.532C130.01 231.532 124.146 238.55 119.459 259.601C118.753 262.767 118.258 303.752 117.928 310.476Z" fill="#F94A4A"/>
<path d="M305.535 304.905C305.168 305.24 304.797 305.57 304.426 305.9C303.022 307.146 301.598 308.37 300.154 309.573C297.972 311.387 295.745 313.147 293.473 314.853H88.3868C84.2104 311.725 80.1883 308.41 76.3204 304.905H305.535Z" fill="#A3A3A3"/>
<path d="M230.36 307.293H154.97L156.565 299.733H228.765L230.36 307.293Z" fill="#141414"/>
<path d="M298.567 274.665H278.949C278.506 274.664 278.069 274.76 277.667 274.945C277.265 275.131 276.909 275.402 276.624 275.74C276.35 275.687 276.072 275.66 275.794 275.66C275.183 275.66 274.577 275.779 274.012 276.012C273.447 276.245 272.933 276.587 272.501 277.018C272.068 277.449 271.725 277.961 271.491 278.524C271.257 279.088 271.136 279.692 271.136 280.302C271.136 280.911 271.257 281.515 271.491 282.079C271.725 282.642 272.068 283.154 272.501 283.585C272.933 284.016 273.447 284.358 274.012 284.591C274.577 284.824 275.183 284.944 275.794 284.943C276.497 284.943 277.19 284.782 277.82 284.474L278.147 288.484L279.448 304.336C279.51 304.534 279.593 304.725 279.695 304.905C279.958 305.387 280.346 305.789 280.818 306.069C281.291 306.349 281.83 306.497 282.38 306.497H295.136C295.686 306.496 296.226 306.348 296.699 306.068C297.172 305.788 297.561 305.387 297.825 304.905C297.924 304.724 298.006 304.534 298.068 304.336L301.499 278.624C301.64 278.167 301.671 277.683 301.59 277.211C301.51 276.739 301.319 276.292 301.034 275.907C300.749 275.522 300.377 275.209 299.948 274.993C299.52 274.778 299.047 274.665 298.567 274.665ZM275.794 283.618C274.913 283.617 274.068 283.267 273.446 282.645C272.823 282.023 272.473 281.18 272.473 280.302C272.473 279.423 272.823 278.58 273.446 277.958C274.068 277.336 274.913 276.986 275.794 276.985C275.854 276.985 275.91 277.001 275.97 277.005C275.838 277.539 275.855 278.099 276.017 278.624L277.421 283.176C276.927 283.463 276.366 283.615 275.794 283.618Z" fill="#292929"/>
<path d="M254.258 190.539H130.075C129.008 190.54 127.985 190.964 127.231 191.716C126.476 192.469 126.052 193.489 126.05 194.553V278.143C126.051 279.207 126.476 280.228 127.23 280.981C127.985 281.733 129.008 282.157 130.075 282.158H254.258C255.325 282.157 256.348 281.733 257.103 280.981C257.857 280.228 258.282 279.207 258.283 278.143V194.553C258.281 193.489 257.856 192.469 257.102 191.716C256.348 190.964 255.325 190.54 254.258 190.539Z" fill="#292929"/>
<path d="M206.152 257.516H177.1C176.689 257.517 176.295 257.68 176.005 257.97C175.715 258.261 175.552 258.654 175.553 259.064V304.842H207.703V259.064C207.703 258.861 207.663 258.659 207.585 258.472C207.507 258.284 207.393 258.113 207.249 257.969C207.105 257.826 206.934 257.712 206.745 257.634C206.557 257.556 206.355 257.516 206.152 257.516ZM191.724 283.527C190.815 283.522 189.945 283.16 189.303 282.52C188.66 281.879 188.297 281.011 188.293 280.105V274.825C188.294 273.918 188.656 273.048 189.299 272.407C189.943 271.767 190.815 271.407 191.724 271.407C192.633 271.407 193.505 271.767 194.148 272.407C194.791 273.048 195.153 273.918 195.154 274.825V280.105C195.15 281.011 194.787 281.879 194.145 282.52C193.502 283.16 192.632 283.522 191.724 283.527Z" fill="#141414"/>
<path d="M175.453 303.377V307.794C175.453 308.023 175.545 308.242 175.707 308.404C175.869 308.566 176.089 308.657 176.318 308.658H206.937C207.167 308.656 207.386 308.565 207.548 308.403C207.71 308.242 207.802 308.023 207.803 307.794V303.377H175.453Z" fill="#292929"/>
<path d="M251.617 277.269C252.7 277.269 253.578 276.394 253.578 275.314C253.578 274.234 252.7 273.358 251.617 273.358C250.534 273.358 249.657 274.234 249.657 275.314C249.657 276.394 250.534 277.269 251.617 277.269Z" fill="#141414"/>
<path d="M145.751 272.477C145.661 272.477 145.572 272.495 145.489 272.529C145.406 272.563 145.33 272.614 145.266 272.677C145.203 272.741 145.152 272.816 145.118 272.899C145.083 272.982 145.065 273.071 145.065 273.161V276.683C145.066 276.864 145.138 277.038 145.267 277.166C145.395 277.293 145.57 277.365 145.751 277.365C145.933 277.365 146.107 277.293 146.236 277.166C146.365 277.038 146.437 276.864 146.437 276.683V273.161C146.437 273.071 146.42 272.982 146.385 272.899C146.351 272.816 146.3 272.741 146.237 272.677C146.173 272.614 146.097 272.563 146.014 272.529C145.931 272.495 145.842 272.477 145.751 272.477Z" fill="#141414"/>
<path d="M149.477 272.477C149.387 272.477 149.298 272.495 149.215 272.529C149.131 272.563 149.056 272.614 148.992 272.677C148.928 272.741 148.878 272.816 148.843 272.899C148.809 272.982 148.791 273.071 148.791 273.161V276.683C148.791 276.864 148.863 277.038 148.992 277.167C149.121 277.295 149.295 277.367 149.477 277.367C149.659 277.367 149.834 277.295 149.962 277.167C150.091 277.038 150.163 276.864 150.163 276.683V273.161C150.163 273.071 150.145 272.982 150.111 272.899C150.076 272.816 150.026 272.741 149.962 272.677C149.899 272.614 149.823 272.563 149.74 272.529C149.656 272.495 149.567 272.477 149.477 272.477Z" fill="#141414"/>
<path d="M153.203 272.477C153.113 272.477 153.023 272.495 152.94 272.529C152.857 272.563 152.781 272.614 152.718 272.677C152.654 272.741 152.603 272.816 152.569 272.899C152.534 272.982 152.517 273.071 152.517 273.161V276.683C152.517 276.864 152.59 277.038 152.718 277.166C152.847 277.293 153.021 277.365 153.203 277.365C153.384 277.365 153.559 277.293 153.687 277.166C153.816 277.038 153.888 276.864 153.889 276.683V273.161C153.889 273.071 153.871 272.982 153.837 272.899C153.802 272.816 153.752 272.741 153.688 272.677C153.624 272.614 153.549 272.563 153.465 272.529C153.382 272.495 153.293 272.477 153.203 272.477Z" fill="#141414"/>
<path d="M156.928 272.477C156.838 272.477 156.749 272.495 156.666 272.529C156.583 272.563 156.507 272.614 156.443 272.677C156.379 272.741 156.329 272.816 156.294 272.899C156.26 272.982 156.242 273.071 156.242 273.161V276.683C156.243 276.864 156.315 277.038 156.444 277.166C156.572 277.293 156.747 277.365 156.928 277.365C157.11 277.365 157.284 277.293 157.413 277.166C157.541 277.038 157.614 276.864 157.614 276.683V273.161C157.614 273.071 157.597 272.982 157.562 272.899C157.528 272.816 157.477 272.741 157.413 272.677C157.35 272.614 157.274 272.563 157.191 272.529C157.108 272.495 157.018 272.477 156.928 272.477Z" fill="#141414"/>
<path d="M159.901 305.303C165.629 305.303 170.272 300.672 170.272 294.958C170.272 289.244 165.629 284.613 159.901 284.613C154.173 284.613 149.53 289.244 149.53 294.958C149.53 300.672 154.173 305.303 159.901 305.303Z" fill="#FBD8BE"/>
<path d="M232.355 307.293C238.083 307.293 242.726 302.661 242.726 296.948C242.726 291.234 238.083 286.602 232.355 286.602C226.627 286.602 221.984 291.234 221.984 296.948C221.984 302.661 226.627 307.293 232.355 307.293Z" fill="#FBD8BE"/>
<path d="M339.404 172.077C338.379 170.386 337.165 168.581 335.263 168.029C333.06 167.39 330.798 168.66 328.879 169.913C323.139 173.661 317.612 177.724 312.323 182.081L312.329 182.146C316.447 181.863 319.864 192.786 323.982 192.502C326.958 192.298 330.736 180.859 333.365 179.455C334.363 178.922 335.335 178.211 336.466 178.161C337.871 178.099 339.095 179.078 340.058 180.1C345.752 186.148 347.399 195.397 353.787 200.71C349.759 190.801 344.95 181.227 339.404 172.077Z" fill="#292929"/>
<path d="M350.363 186.767C353.366 192.178 356.552 197.482 359.92 202.678V202.682C359.9 202.865 359.872 203.048 359.844 203.231C359.438 202.611 359.035 201.987 358.636 201.361C355.612 196.63 352.739 191.809 350.016 186.898C348.723 184.562 347.463 182.208 346.234 179.835C345.285 177.997 344.355 176.148 343.446 174.289C343.187 173.755 342.935 173.222 342.684 172.685C342.094 171.428 341.511 170.162 340.889 168.921C340.179 167.505 339.313 166.024 338.009 165.073C337.416 164.622 336.706 164.349 335.963 164.286C334.916 164.292 333.89 164.585 332.999 165.133C326.251 168.671 319.953 173.003 314.239 178.037C308.518 183.05 303.404 188.714 299.001 194.911C298.866 195.102 298.547 194.919 298.682 194.724C299.221 193.968 299.763 193.224 300.322 192.484C307.243 183.304 315.729 175.408 325.392 169.16C327.016 168.109 328.671 167.108 330.358 166.156C331.208 165.674 332.062 165.201 332.931 164.755C333.764 164.268 334.697 163.98 335.66 163.912C338.97 163.86 340.686 167.6 341.862 170.115C342.229 170.907 342.603 171.697 342.983 172.486C344.415 175.47 345.903 178.431 347.447 181.367C348.396 183.178 349.368 184.977 350.363 186.767Z" fill="#292929"/>
<path d="M313.914 176.189C313.721 175.976 313.53 175.762 313.337 175.548C311.81 173.864 310.172 172.2 308.076 171.234C307.077 170.76 305.986 170.507 304.879 170.495C303.737 170.526 302.611 170.771 301.559 171.217C301.059 171.416 300.571 171.643 300.089 171.883C299.539 172.159 298.999 172.454 298.461 172.751C297.452 173.308 296.455 173.89 295.472 174.496C293.516 175.702 291.621 177 289.787 178.39C288.836 179.111 287.905 179.856 286.994 180.624C286.146 181.338 285.315 182.07 284.502 182.822C284.328 182.982 284.068 182.723 284.242 182.563C284.457 182.364 284.673 182.166 284.89 181.971C285.503 181.418 286.125 180.877 286.757 180.345C287.91 179.375 289.092 178.442 290.305 177.547C292.19 176.154 294.14 174.856 296.156 173.651C297.163 173.05 298.183 172.474 299.218 171.924C299.531 171.757 299.847 171.595 300.166 171.441C300.892 171.076 301.646 170.77 302.42 170.526C303.518 170.172 304.679 170.058 305.825 170.192C306.931 170.353 307.997 170.72 308.966 171.276C311.024 172.423 312.62 174.198 314.173 175.929C314.33 176.105 314.072 176.365 313.914 176.189Z" fill="#292929"/>
<path d="M298.853 184.291C298.33 184.317 297.813 184.169 297.383 183.871C296.244 183.01 296.274 180.943 297.474 177.551C297.801 176.632 298.313 175.789 298.979 175.076C299.645 174.362 300.451 173.791 301.346 173.4C302.185 173.026 303.093 172.83 304.012 172.825C304.931 172.819 305.841 173.004 306.684 173.369C306.831 173.432 306.976 173.501 307.12 173.574C308.096 174.119 309.011 174.767 309.849 175.506C310.562 176.123 311.322 176.683 312.122 177.181L312.39 177.337L312.136 177.515C305.675 182.053 301.294 184.291 298.853 184.291Z" fill="#292929"/>
<path d="M323.701 157.287C321.576 157.286 319.517 156.55 317.876 155.205C316.234 153.859 315.112 151.987 314.7 149.908C312.923 150.266 311.293 151.142 310.015 152.424C308.737 153.706 307.868 155.337 307.518 157.111C307.169 158.886 307.354 160.723 308.05 162.393C308.746 164.062 309.923 165.488 311.431 166.491C312.939 167.495 314.711 168.03 316.524 168.029C318.336 168.028 320.108 167.492 321.616 166.488C323.123 165.484 324.299 164.057 324.994 162.387C325.689 160.717 325.873 158.88 325.522 157.106C324.922 157.226 324.312 157.287 323.701 157.287Z" fill="#292929"/>
<path opacity="0.74" d="M78.1124 172.009C85.6737 172.009 91.8034 165.894 91.8034 158.352C91.8034 150.81 85.6737 144.695 78.1124 144.695C70.5511 144.695 64.4214 150.81 64.4214 158.352C64.4214 165.894 70.5511 172.009 78.1124 172.009Z" fill="#666666"/>
<path opacity="0.74" d="M91.8034 172.009C99.3647 172.009 105.494 165.894 105.494 158.352C105.494 150.81 99.3647 144.695 91.8034 144.695C84.2421 144.695 78.1124 150.81 78.1124 158.352C78.1124 165.894 84.2421 172.009 91.8034 172.009Z" fill="#F94A4A"/>
<path opacity="0.74" d="M85.0737 161.124C92.635 161.124 98.7647 155.01 98.7647 147.468C98.7647 139.925 92.635 133.811 85.0737 133.811C77.5124 133.811 71.3827 139.925 71.3827 147.468C71.3827 155.01 77.5124 161.124 85.0737 161.124Z" fill="#FFEF5C"/>
<path d="M120.874 143.554L85.7073 154.575L85.9464 155.334L121.113 144.313L120.874 143.554Z" fill="#3F3D56"/>
<path d="M121.098 145.398C121.979 145.398 122.693 144.685 122.693 143.806C122.693 142.927 121.979 142.215 121.098 142.215C120.217 142.215 119.502 142.927 119.502 143.806C119.502 144.685 120.217 145.398 121.098 145.398Z" fill="#3F3D56"/>
<path d="M349.397 215.423C351.735 217.066 353.981 218.741 356.55 220.007C356.502 220.202 356.45 220.401 356.402 220.596C356.087 220.448 355.78 220.293 355.473 220.134C352.868 218.773 350.626 216.923 348.181 215.316C346.969 214.48 345.645 213.818 344.248 213.35C342.792 212.913 341.27 212.736 339.752 212.825C333.422 213.135 327.997 216.903 322.113 218.801C319.233 219.732 316.17 220.229 313.166 219.645C310.162 219.06 307.494 217.468 304.841 216.028C302.225 214.603 299.372 213.171 296.317 213.171C293.828 213.175 291.211 214.17 289.879 216.366C289.837 216.432 289.772 216.478 289.697 216.497C289.621 216.515 289.541 216.503 289.474 216.464C289.407 216.425 289.359 216.361 289.338 216.286C289.317 216.211 289.327 216.131 289.364 216.064C289.662 215.563 290.029 215.106 290.453 214.707C292.192 213.063 294.749 212.415 297.099 212.606C300.138 212.853 302.911 214.285 305.539 215.725C308.328 217.253 311.184 218.897 314.407 219.231C317.59 219.565 320.741 218.733 323.693 217.615C329.409 215.447 335.049 211.834 341.408 212.236C344.407 212.427 346.976 213.724 349.397 215.423Z" fill="#292929"/>
<path d="M99.1968 100.348V101.156C98.9288 101.103 98.6562 101.076 98.383 101.076H94.2106V110.013C94.2099 111.336 93.6826 112.605 92.7447 113.54C91.8068 114.476 90.535 115.002 89.2085 115.002H83.0417V116.379C83.0417 116.931 83.1515 117.477 83.3648 117.987H82.5111C82.3327 117.469 82.2424 116.926 82.2439 116.379V115.002H78.8533V114.207H82.2439V105.27C82.2446 103.947 82.7719 102.678 83.7098 101.743C84.6477 100.807 85.9196 100.281 87.246 100.28H93.4128V98.8877H94.2106V100.28H98.383C98.6557 100.281 98.9278 100.303 99.1968 100.348Z" fill="#F94A4A"/>
<path d="M89.2085 93.914H78.0715C76.7451 93.9148 75.4732 94.4407 74.5353 95.3763C73.5974 96.3118 73.0701 97.5805 73.0694 98.9036V110.013C73.0701 111.336 73.5974 112.605 74.5353 113.54C75.4732 114.476 76.7451 115.002 78.0715 115.002H89.2085C90.5349 115.002 91.8068 114.476 92.7447 113.54C93.6826 112.605 94.2098 111.336 94.2106 110.013V98.8877C94.2059 97.5673 93.6768 96.3026 92.7393 95.3704C91.8018 94.4382 90.5322 93.9145 89.2085 93.914ZM93.4128 110.013C93.4113 111.125 92.9679 112.19 92.1798 112.977C91.3916 113.763 90.3231 114.205 89.2085 114.207H78.0715C76.9569 114.205 75.8884 113.763 75.1002 112.977C74.3121 112.19 73.8687 111.125 73.8672 110.013V98.9036C73.8687 97.7918 74.3121 96.726 75.1002 95.9398C75.8884 95.1536 76.9569 94.7113 78.0715 94.7098H89.2085C90.3204 94.7111 91.3867 95.1512 92.1744 95.9339C92.9621 96.7167 93.4073 97.7786 93.4128 98.8877V110.013Z" fill="#292929"/>
<path d="M82.2439 114.207V115.002H83.0417V114.207H82.2439ZM82.2439 114.207V115.002H83.0417V114.207H82.2439ZM99.1968 100.348C98.9278 100.303 98.6557 100.281 98.383 100.28H87.246C85.9196 100.281 84.6477 100.807 83.7098 101.743C82.7719 102.678 82.2446 103.947 82.2439 105.27V116.379C82.2424 116.926 82.3328 117.469 82.5111 117.987C82.8479 118.973 83.4854 119.829 84.3345 120.435C85.1836 121.042 86.2016 121.368 87.246 121.369H98.383C99.7095 121.368 100.981 120.842 101.919 119.906C102.857 118.971 103.384 117.702 103.385 116.379V105.27C103.385 104.087 102.964 102.944 102.196 102.042C101.429 101.141 100.366 100.54 99.1968 100.348ZM102.587 116.379C102.586 117.491 102.142 118.557 101.354 119.343C100.566 120.129 99.4976 120.571 98.383 120.573H87.246C86.1314 120.571 85.0629 120.129 84.2748 119.343C83.4867 118.557 83.0433 117.491 83.0417 116.379V105.27C83.0432 104.158 83.4866 103.092 84.2747 102.306C85.0629 101.52 86.1314 101.078 87.246 101.076H98.383C99.498 101.077 100.567 101.518 101.355 102.305C102.144 103.091 102.587 104.158 102.587 105.27V116.379ZM82.2439 114.207V115.002H83.0417V114.207H82.2439Z" fill="#292929"/>
<path d="M74.3658 217.934H27.0573C26.728 217.934 26.4121 218.064 26.1789 218.296C25.9457 218.528 25.814 218.843 25.8127 219.171V221.968C27.3735 227.931 29.2632 233.804 31.473 239.559H74.3658C74.5288 239.559 74.6901 239.527 74.8407 239.465C74.9913 239.403 75.1281 239.312 75.2434 239.197C75.3586 239.082 75.45 238.946 75.5123 238.795C75.5745 238.645 75.6065 238.484 75.6063 238.322V219.171C75.606 218.843 75.4752 218.528 75.2426 218.296C75.01 218.064 74.6947 217.934 74.3658 217.934Z" fill="#F94A4A"/>
<path d="M69.8583 245.77H33.998C34.4248 246.769 34.8596 247.76 35.3104 248.747H69.8583C71.8049 248.774 71.785 245.743 69.8583 245.77Z" fill="#E0E0E0"/>
<path d="M69.8583 252.59H37.1093C37.588 253.589 38.0799 254.581 38.5852 255.566H69.8583C71.8049 255.594 71.7849 252.566 69.8583 252.59Z" fill="#E0E0E0"/>
<path d="M69.8583 259.414H40.5996C41.1341 260.413 41.6846 261.404 42.243 262.39H69.8583C71.8049 262.418 71.7849 259.386 69.8583 259.414Z" fill="#E0E0E0"/>
<path d="M315.117 75.9987H314.89C315.598 75.9994 316.295 76.1639 316.928 76.4795H315.894C314.779 76.4808 313.71 76.923 312.922 77.7092C312.134 78.4954 311.691 79.5613 311.69 80.6731V91.7827C311.691 92.8945 312.134 93.9605 312.922 94.7467C313.71 95.5328 314.779 95.9751 315.894 95.9763H316.553C316.023 96.1837 315.459 96.2905 314.89 96.2913H315.117C316.338 96.2899 317.508 95.8057 318.371 94.9449C319.234 94.0842 319.719 92.9171 319.72 91.6998V80.5902C319.719 79.3729 319.234 78.2059 318.371 77.3451C317.508 76.4843 316.338 76.0001 315.117 75.9987Z" fill="#141414"/>
<path d="M285.599 75.9987H285.372C286.08 75.9994 286.777 76.1639 287.41 76.4795H286.376C285.261 76.4808 284.193 76.923 283.404 77.7092C282.616 78.4954 282.173 79.5613 282.172 80.6731V91.7827C282.173 92.8945 282.616 93.9605 283.404 94.7467C284.193 95.5328 285.261 95.9751 286.376 95.9763H287.035C286.505 96.1837 285.941 96.2905 285.372 96.2913H285.599C286.82 96.2899 287.99 95.8057 288.853 94.9449C289.716 94.0842 290.201 92.9171 290.202 91.6998V80.5902C290.201 79.3729 289.716 78.2059 288.853 77.3451C287.99 76.4843 286.82 76.0001 285.599 75.9987Z" fill="#BB2B2B"/>
<path d="M286.42 96.0109C285.306 96.0097 284.237 95.5674 283.449 94.7812C282.661 93.9951 282.217 92.9291 282.216 91.8173V80.7077C282.217 79.5959 282.661 78.53 283.449 77.7438C284.237 76.9576 285.306 76.5154 286.42 76.5141H287.455C286.822 76.1985 286.124 76.0339 285.417 76.0333H274.279C273.059 76.0347 271.889 76.5189 271.026 77.3797C270.163 78.2404 269.678 79.4075 269.676 80.6248V91.7344C269.678 92.9517 270.163 94.1188 271.026 94.9795C271.889 95.8403 273.059 96.3245 274.279 96.3259H285.417C285.986 96.3251 286.55 96.2183 287.08 96.0109L286.42 96.0109Z" fill="#F94A4A"/>
<path d="M315.938 96.0109C314.824 96.0097 313.755 95.5674 312.967 94.7812C312.179 93.9951 311.735 92.9291 311.734 91.8173V80.7077C311.735 79.5959 312.179 78.53 312.967 77.7438C313.755 76.9576 314.824 76.5154 315.938 76.5141H316.973C316.34 76.1985 315.642 76.0339 314.935 76.0333H303.797C302.577 76.0347 301.407 76.5189 300.544 77.3797C299.681 78.2404 299.196 79.4075 299.194 80.6248V91.7344C299.196 92.9517 299.681 94.1188 300.544 94.9795C301.407 95.8403 302.577 96.3245 303.797 96.3259H314.935C315.504 96.3251 316.068 96.2183 316.598 96.0109L315.938 96.0109Z" fill="#292929"/>
<path d="M329.09 78.798C333.177 84.4071 336.916 90.2604 340.287 96.3252H333.314C332.094 96.3234 330.924 95.8391 330.061 94.9784C329.198 94.1177 328.713 92.9508 328.711 91.7336V80.6243C328.711 79.9961 328.84 79.3745 329.09 78.798Z" fill="#FFEF5C"/>
<path d="M315.109 102.154L311.208 96.3253L308.356 92.0638C308.189 91.8149 307.955 91.6181 307.681 91.4963C307.408 91.3745 307.105 91.3326 306.808 91.3755C306.511 91.4183 306.232 91.5443 306.004 91.7386C305.776 91.933 305.608 92.1879 305.519 92.4736L304.319 96.3253L301.901 104.064C301.806 104.373 301.807 104.703 301.904 105.01C302.002 105.318 302.191 105.589 302.447 105.786C302.703 105.984 303.013 106.099 303.336 106.116C303.659 106.134 303.98 106.052 304.255 105.883L305.113 105.353C305.285 105.247 305.482 105.187 305.685 105.178C305.887 105.169 306.089 105.212 306.27 105.302C306.452 105.393 306.607 105.528 306.721 105.695C306.835 105.862 306.905 106.055 306.924 106.257L307.709 114.811C307.746 115.204 307.928 115.57 308.22 115.836C308.512 116.102 308.893 116.25 309.289 116.252C309.337 116.252 309.385 116.248 309.437 116.244L310.641 116.136C310.849 116.118 311.051 116.058 311.236 115.961C311.42 115.864 311.584 115.732 311.718 115.572C311.851 115.412 311.951 115.227 312.013 115.029C312.075 114.83 312.097 114.621 312.077 114.414L311.267 105.58C311.248 105.373 311.284 105.164 311.372 104.975C311.459 104.785 311.595 104.622 311.766 104.502C311.936 104.382 312.136 104.309 312.344 104.29C312.552 104.271 312.761 104.307 312.951 104.395L313.126 104.474C313.441 104.618 313.794 104.656 314.131 104.582C314.469 104.508 314.774 104.326 314.998 104.063C315.223 103.8 315.355 103.472 315.375 103.127C315.395 102.783 315.301 102.441 315.109 102.154Z" fill="#B8B8B8"/>
</g>
<defs>
<clipPath id="clip0_2_134">
<rect width="360" height="349" fill="white"/>
</clipPath>
</defs>
</svg>
