<svg width="207" height="41" viewBox="0 0 207 41" fill="none" xmlns="http://www.w3.org/2000/svg">
<path d="M3.55998 33.36C2.73331 33.36 2.01331 33.08 1.39998 32.52C0.786647 31.9333 0.47998 31.2 0.47998 30.32C0.47998 29.3333 0.826647 28.5333 1.51998 27.92C2.23998 27.28 3.10665 26.96 4.11998 26.96C5.07998 26.96 5.83998 27.2666 6.39998 27.88C6.95998 28.4666 7.23998 29.1733 7.23998 30C7.23998 31.04 6.89331 31.8666 6.19998 32.48C5.53331 33.0666 4.65331 33.36 3.55998 33.36Z" fill="#F94A4A"/>
<path d="M15.1187 40.08H11.0787L21.5587 1.75998H25.5987L15.1187 40.08Z" fill="#141414"/>
<path d="M33.3453 6.27998L29.0253 5.75998V3.27998H41.5053L46.2653 20.48L47.3853 25.16L48.3453 20.48L53.0653 3.27998H65.4253V5.75998L61.0653 6.27998L64.2653 30.16L67.5053 30.6V33H54.7453V30.6L58.2653 30.2L56.5053 12.68L55.7453 5.35998L54.2653 11.52L48.4653 31.76H44.2253L38.3053 12.56L36.2653 5.35998L35.6653 12.68L34.1453 30.2L38.1853 30.6V33H27.0653V30.6L30.4253 30.2L33.3453 6.27998Z" fill="#141414"/>
<path d="M68.9694 26.76C68.9694 24.3333 70.1827 22.5066 72.6094 21.28C75.0627 20.0533 78.2227 19.4266 82.0894 19.4V18.48C82.0894 17.3866 81.9694 16.5333 81.7294 15.92C81.516 15.3066 81.1027 14.8533 80.4894 14.56C79.9027 14.24 79.036 14.08 77.8894 14.08C76.5827 14.08 75.4094 14.2533 74.3694 14.6C73.3294 14.92 72.2494 15.3466 71.1294 15.88L69.8894 13.32C70.2894 12.9733 70.956 12.56 71.8894 12.08C72.8494 11.6 73.9827 11.1866 75.2894 10.84C76.596 10.4666 77.9427 10.28 79.3294 10.28C81.3827 10.28 82.9827 10.5466 84.1294 11.08C85.3027 11.6133 86.1427 12.4666 86.6494 13.64C87.156 14.8133 87.4094 16.3866 87.4094 18.36V30.6H89.5694V32.84C89.036 32.9733 88.276 33.1066 87.2894 33.24C86.3027 33.3733 85.436 33.44 84.6894 33.44C83.7827 33.44 83.1694 33.3066 82.8494 33.04C82.556 32.7733 82.4094 32.2266 82.4094 31.4V30.32C81.6894 31.12 80.756 31.84 79.6094 32.48C78.4627 33.12 77.1694 33.44 75.7294 33.44C74.5027 33.44 73.3694 33.1866 72.3294 32.68C71.316 32.1466 70.5027 31.3866 69.8894 30.4C69.276 29.3866 68.9694 28.1733 68.9694 26.76ZM78.2894 30.12C78.8494 30.12 79.4894 29.96 80.2094 29.64C80.9294 29.2933 81.556 28.88 82.0894 28.4V21.84C79.6894 21.84 77.8894 22.2533 76.6894 23.08C75.516 23.88 74.9294 24.92 74.9294 26.2C74.9294 27.48 75.2227 28.4533 75.8094 29.12C76.4227 29.7866 77.2494 30.12 78.2894 30.12Z" fill="#141414"/>
<path d="M110.106 33.4C109.226 33.4 108.586 33.2133 108.186 32.84C107.786 32.4666 107.586 31.9066 107.586 31.16V30.08C106.866 30.96 105.852 31.7466 104.546 32.44C103.239 33.1066 101.932 33.44 100.626 33.44C98.0656 33.44 96.2389 32.7866 95.1456 31.48C94.0523 30.1466 93.5056 27.96 93.5056 24.92V13.64L91.5056 13.08V10.8L98.3056 10.28H98.3456L99.1456 10.84V24.92C99.1456 26.8666 99.3856 28.2266 99.8656 29C100.346 29.7733 101.239 30.16 102.546 30.16C104.119 30.16 105.586 29.5466 106.946 28.32V13.64L104.266 13.04V10.8L111.506 10.28H111.586L112.546 10.84V30.52H114.786L114.746 32.8C114.639 32.8266 114.146 32.9333 113.266 33.12C112.386 33.3066 111.332 33.4 110.106 33.4Z" fill="#141414"/>
<path d="M117.612 30.64L120.252 30.32V14.56L117.692 13.84V11.08L123.892 10.24H124.012L125.012 11.04V11.92L124.892 15.16H125.012C125.199 14.6266 125.639 13.9733 126.332 13.2C127.026 12.4 127.892 11.7066 128.932 11.12C129.999 10.5066 131.146 10.2 132.372 10.2C132.959 10.2 133.466 10.28 133.892 10.44V16.44C133.092 15.88 132.119 15.6 130.972 15.6C129.026 15.6 127.332 16.12 125.892 17.16V30.28L130.532 30.64V33H117.612V30.64Z" fill="#141414"/>
<path d="M141.201 7.11998C140.241 7.11998 139.481 6.83998 138.921 6.27998C138.361 5.71998 138.081 4.99998 138.081 4.11998C138.081 3.10664 138.401 2.26664 139.041 1.59998C139.681 0.933309 140.534 0.599976 141.601 0.599976C142.667 0.599976 143.481 0.893309 144.041 1.47998C144.601 2.03998 144.881 2.74664 144.881 3.59998C144.881 4.66664 144.561 5.51998 143.921 6.15998C143.281 6.79998 142.387 7.11998 141.241 7.11998H141.201ZM139.081 14.56L136.241 13.8V11.12L143.561 10.24H143.641L144.761 11.04V30.28L147.441 30.6V33H136.281V30.6L139.081 30.24V14.56Z" fill="#141414"/>
<path d="M149.788 22C149.788 19.7066 150.241 17.6666 151.148 15.88C152.081 14.0933 153.401 12.7066 155.108 11.72C156.841 10.7066 158.854 10.2 161.148 10.2C162.214 10.2 163.134 10.28 163.908 10.44C164.681 10.6 165.548 10.8133 166.508 11.08L167.668 11.4L167.428 18.24H163.948L162.948 13.84C162.788 13.1466 162.001 12.8 160.588 12.8C159.094 12.8 157.921 13.4533 157.068 14.76C156.241 16.0666 155.814 18.1066 155.788 20.88C155.788 23.8133 156.294 26.0666 157.308 27.64C158.321 29.1866 159.668 29.96 161.348 29.96C163.374 29.96 165.241 29.4133 166.948 28.32L167.868 30.4C167.174 31.1466 166.108 31.84 164.668 32.48C163.254 33.12 161.721 33.44 160.068 33.44C156.654 33.44 154.081 32.3866 152.348 30.28C150.641 28.1733 149.788 25.4133 149.788 22Z" fill="#141414"/>
<path d="M175.81 7.11998C174.85 7.11998 174.09 6.83998 173.53 6.27998C172.97 5.71998 172.69 4.99998 172.69 4.11998C172.69 3.10664 173.01 2.26664 173.65 1.59998C174.29 0.933309 175.143 0.599976 176.21 0.599976C177.277 0.599976 178.09 0.893309 178.65 1.47998C179.21 2.03998 179.49 2.74664 179.49 3.59998C179.49 4.66664 179.17 5.51998 178.53 6.15998C177.89 6.79998 176.997 7.11998 175.85 7.11998H175.81ZM173.69 14.56L170.85 13.8V11.12L178.17 10.24H178.25L179.37 11.04V30.28L182.05 30.6V33H170.89V30.6L173.69 30.24V14.56Z" fill="#141414"/>
<path d="M184.917 21.92C184.917 19.4133 185.411 17.28 186.397 15.52C187.411 13.76 188.757 12.44 190.437 11.56C192.117 10.6533 193.944 10.2 195.917 10.2C199.277 10.2 201.864 11.24 203.677 13.32C205.517 15.3733 206.437 18.1733 206.437 21.72C206.437 24.2533 205.931 26.4133 204.917 28.2C203.931 29.96 202.597 31.28 200.917 32.16C199.264 33.0133 197.437 33.44 195.437 33.44C192.104 33.44 189.517 32.4133 187.677 30.36C185.837 28.28 184.917 25.4666 184.917 21.92ZM195.757 30.84C198.771 30.84 200.277 27.9333 200.277 22.12C200.277 19.08 199.917 16.7733 199.197 15.2C198.477 13.6 197.304 12.8 195.677 12.8C192.584 12.8 191.037 15.7066 191.037 21.52C191.037 24.56 191.41 26.88 192.157 28.48C192.93 30.0533 194.131 30.84 195.757 30.84Z" fill="#141414"/>
</svg>
